<svg xmlns="http://www.w3.org/2000/svg" width="805" height="600"><rect width="805" height="600" x="0" y="0" fill="#FFFFFF" id="background"/><g transform="translate(20,20)" id="viz"><g id="nodes"><g transform="translate(383.5,281)"><path id="p_943.5" d="M-5.143516556418883e-14,280A280,280,0,1,1,5.143516556418883e-14,-280A280,280,0,1,1,-5.143516556418883e-14,280Z" fill="none" stroke="#ccc"/><text fill="black" text-anchor="middle" font-family="'Arial', sans-serif" font-size="8" dominant-baseline="middle" x="0" y="-280"/></g><g transform="translate(252.50481838175477,281)" id="novela"><path id="p_650.8273498210752" d="M-2.1735496409126367e-14,118.3225314393204A118.3225314393204,118.3225314393204,0,1,1,2.1735496409126367e-14,-118.3225314393204A118.3225314393204,118.3225314393204,0,1,1,-2.1735496409126367e-14,118.3225314393204Z" fill="#d62728" stroke="none"/></g><g transform="translate(473.2060878079478,281)" id="cuentos"><path id="p_849.8160301748663" d="M-1.7746958502818548e-14,96.60994236691849A96.60994236691849,96.60994236691849,0,1,1,1.7746958502818548e-14,-96.60994236691849A96.60994236691849,96.60994236691849,0,1,1,-1.7746958502818548e-14,96.60994236691849Z" fill="#ff7f0e" stroke="none"/></g><g transform="translate(383.5,458.6212620131273)" id="manga"><path id="p_937.7312043800458" d="M-1.7746958502818548e-14,96.60994236691849A96.60994236691849,96.60994236691849,0,1,1,1.7746958502818548e-14,-96.60994236691849A96.60994236691849,96.60994236691849,0,1,1,-1.7746958502818548e-14,96.60994236691849Z" fill="#2ca02c" stroke="none"/></g><g transform="translate(383.5,103.37873798687266)" id="comic"><path id="p_582.4886803537912" d="M-1.7746958502818548e-14,96.60994236691849A96.60994236691849,96.60994236691849,0,1,1,1.7746958502818548e-14,-96.60994236691849A96.60994236691849,96.60994236691849,0,1,1,-1.7746958502818548e-14,96.60994236691849Z" fill="#1f77b4" stroke="none"/></g></g><g id="labels"><g transform="translate(252.50481838175477,281)"><text text-anchor="middle" dominant-baseline="text-before-edge" transform="translate(0,-11.5)"><tspan x="0" y="0" dy="0" style="font-family: Arial, sans-serif; font-size: 10px; fill: black; font-weight: bold;">Palabras radiantes,El señor de los anillos,Crimen y castigo</tspan><tspan x="0" y="0" dy="12" style="font-family: Arial, sans-serif; font-size: 10px; fill: black; font-weight: normal;">novela</tspan></text></g><g transform="translate(473.2060878079478,281)"><text text-anchor="middle" dominant-baseline="text-before-edge" transform="translate(0,-11.5)"><tspan x="0" y="0" dy="0" style="font-family: Arial, sans-serif; font-size: 10px; fill: black; font-weight: bold;">El aleph,La llamada de Cthulhu y otros cuentos</tspan><tspan x="0" y="0" dy="12" style="font-family: Arial, sans-serif; font-size: 10px; fill: black; font-weight: normal;">cuentos</tspan></text></g><g transform="translate(383.5,458.6212620131273)"><text text-anchor="middle" dominant-baseline="text-before-edge" transform="translate(0,-11.5)"><tspan x="0" y="0" dy="0" style="font-family: Arial, sans-serif; font-size: 10px; fill: black; font-weight: bold;">Dededede #1,Solanin</tspan><tspan x="0" y="0" dy="12" style="font-family: Arial, sans-serif; font-size: 10px; fill: black; font-weight: normal;">manga</tspan></text></g><g transform="translate(383.5,103.37873798687266)"><text text-anchor="middle" dominant-baseline="text-before-edge" transform="translate(0,-11.5)"><tspan x="0" y="0" dy="0" style="font-family: Arial, sans-serif; font-size: 10px; fill: black; font-weight: bold;">Batman: Año Uno,Watchmen</tspan><tspan x="0" y="0" dy="12" style="font-family: Arial, sans-serif; font-size: 10px; fill: black; font-weight: normal;">comic</tspan></text></g></g></g></svg>