<svg xmlns="http://www.w3.org/2000/svg" width="1005" height="600"><rect width="1005" height="600" x="0" y="0" fill="#FFFFFF" id="background"/><g transform="translate(20,20)" id="viz"><g id="nodes"><g transform="translate(383.5,281)"><path id="p_944.5" d="M-5.143516556418883e-14,280A280,280,0,1,1,5.143516556418883e-14,-280A280,280,0,1,1,-5.143516556418883e-14,280Z" fill="none" stroke="#ccc"/><text fill="black" text-anchor="middle" font-family="'Arial', sans-serif" font-size="8" dominant-baseline="middle" x="0" y="-280"/></g><g transform="translate(277.7729336218022,280.470106678058)" id="novela"><path id="p_727.1310485929869" d="M-3.1024223815582376e-14,168.88800829312663A168.88800829312663,168.88800829312663,0,1,1,3.1024223815582376e-14,-168.88800829312663A168.88800829312663,168.88800829312663,0,1,1,-3.1024223815582376e-14,168.88800829312663Z" fill="none" stroke="#ccc"/><text fill="black" text-anchor="middle" font-family="'Arial', sans-serif" font-size="8" dominant-baseline="middle" x="0" y="-168.88800829312663">novela</text></g><g transform="translate(542.6036662096215,280.470106678058)" id="manga"><path id="p_913.6328997311218" d="M-1.6635441723360118e-14,90.55912684344231A90.55912684344231,90.55912684344231,0,1,1,1.6635441723360118e-14,-90.55912684344231A90.55912684344231,90.55912684344231,0,1,1,-1.6635441723360118e-14,90.55912684344231Z" fill="none" stroke="#ccc"/><text fill="black" text-anchor="middle" font-family="'Arial', sans-serif" font-size="8" dominant-baseline="middle" x="0" y="-90.55912684344231">manga</text></g><g transform="translate(475.1111921425248,447.70486618628104)" id="cuentos"><path id="p_1007.213842083389" d="M-1.5503621359527108e-14,84.39778375458313A84.39778375458313,84.39778375458313,0,1,1,1.5503621359527108e-14,-84.39778375458313A84.39778375458313,84.39778375458313,0,1,1,-1.5503621359527108e-14,84.39778375458313Z" fill="none" stroke="#ccc"/><text fill="black" text-anchor="middle" font-family="'Arial', sans-serif" font-size="8" dominant-baseline="middle" x="0" y="-84.39778375458313">cuentos</text></g><g transform="translate(474.98586061771624,113.74316457556651)" id="comic"><path id="p_672.7030618073844" d="M-1.5425780272641344e-14,83.9740366141017A83.9740366141017,83.9740366141017,0,1,1,1.5425780272641344e-14,-83.9740366141017A83.9740366141017,83.9740366141017,0,1,1,-1.5425780272641344e-14,83.9740366141017Z" fill="none" stroke="#ccc"/><text fill="black" text-anchor="middle" font-family="'Arial', sans-serif" font-size="8" dominant-baseline="middle" x="0" y="-83.9740366141017">comic</text></g><g transform="translate(197.85251009421273,263.00272326915086)" id="El se単or de los anillos"><path id="p_542.5526544061827" d="M-1.500757277680231e-14,81.69742104281914A81.69742104281914,81.69742104281914,0,1,1,1.500757277680231e-14,-81.69742104281914A81.69742104281914,81.69742104281914,0,1,1,-1.500757277680231e-14,81.69742104281914Z" fill="#d62728" stroke="none"/></g><g transform="translate(362.2115523881379,263.00272326915086)" id="Palabras radiantes"><path id="p_702.4922994571444" d="M-1.4195742673638948e-14,77.27802379985575A77.27802379985575,77.27802379985575,0,1,1,1.4195742673638948e-14,-77.27802379985575A77.27802379985575,77.27802379985575,0,1,1,-1.4195742673638948e-14,77.27802379985575Z" fill="#d62728" stroke="none"/></g><g transform="translate(283.94592879491637,383.1010407354016)" id="Crimen y castigo"><path id="p_727.7349687693276" d="M-1.1148204602206521e-14,60.68799923900963A60.68799923900963,60.68799923900963,0,1,1,1.1148204602206521e-14,-60.68799923900963A60.68799923900963,60.68799923900963,0,1,1,-1.1148204602206521e-14,60.68799923900963Z" fill="#d62728" stroke="none"/></g><g transform="translate(506.1230317644207,280.470106678058)" id="Solanin"><path id="p_835.2880333894699" d="M-8.945107084747417e-15,48.69489494699124A48.69489494699124,48.69489494699124,0,1,1,8.945107084747417e-15,-48.69489494699124A48.69489494699124,48.69489494699124,0,1,1,-8.945107084747417e-15,48.69489494699124Z" fill="#2ca02c" stroke="none"/></g><g transform="translate(593.9903598822378,280.470106678058)" id="Dededede #1"><path id="p_908.2493022798715" d="M-6.206908426634105e-15,33.788835719575616A33.788835719575616,33.788835719575616,0,1,1,6.206908426634105e-15,-33.788835719575616A33.788835719575616,33.788835719575616,0,1,1,-6.206908426634105e-15,33.788835719575616Z" fill="#2ca02c" stroke="none"/></g><g transform="translate(444.11081976186773,447.70486618628104)" id="La llamada de Cthulhu y otros cuentos"><path id="p_939.8294998708245" d="M-8.819994530289222e-15,48.01381392267575A48.01381392267575,48.01381392267575,0,1,1,8.819994530289222e-15,-48.01381392267575A48.01381392267575,48.01381392267575,0,1,1,-8.819994530289222e-15,48.01381392267575Z" fill="#ff7f0e" stroke="none"/></g><g transform="translate(525.8168047908257,447.70486618628104)" id="El aleph"><path id="p_1001.8302446321387" d="M-5.2002006172592916e-15,28.308573655031932A28.308573655031932,28.308573655031932,0,1,1,5.2002006172592916e-15,-28.308573655031932A28.308573655031932,28.308573655031932,0,1,1,-5.2002006172592916e-15,28.308573655031932Z" fill="#ff7f0e" stroke="none"/></g><g transform="translate(444.18005118628514,113.74316457556651)" id="Watchmen"><path id="p_605.707845493272" d="M-8.7778940773538e-15,47.78462973142032A47.78462973142032,47.78462973142032,0,1,1,8.7778940773538e-15,-47.78462973142032A47.78462973142032,47.78462973142032,0,1,1,-8.7778940773538e-15,47.78462973142032Z" fill="#1f77b4" stroke="none"/></g><g transform="translate(525.4622890747617,113.74316457556651)" id="Batman: A単o Uno"><path id="p_667.3194643561342" d="M-5.164459983308949e-15,28.11401070580594A28.11401070580594,28.11401070580594,0,1,1,5.164459983308949e-15,-28.11401070580594A28.11401070580594,28.11401070580594,0,1,1,-5.164459983308949e-15,28.11401070580594Z" fill="#1f77b4" stroke="none"/></g></g><g id="labels"><g transform="translate(197.85251009421273,263.00272326915086)"><text text-anchor="middle" dominant-baseline="text-before-edge" transform="translate(0,-5.5)" style="opacity: 1;"><tspan x="0" y="0" dy="0" style="font-family: Arial, sans-serif; font-size: 10px; fill: black; font-weight: bold;">El se単or de los anillos</tspan></text></g><g transform="translate(362.2115523881379,263.00272326915086)"><text text-anchor="middle" dominant-baseline="text-before-edge" transform="translate(0,-5.5)" style="opacity: 1;"><tspan x="0" y="0" dy="0" style="font-family: Arial, sans-serif; font-size: 10px; fill: black; font-weight: bold;">Palabras radiantes</tspan></text></g><g transform="translate(283.94592879491637,383.1010407354016)"><text text-anchor="middle" dominant-baseline="text-before-edge" transform="translate(0,-5.5)" style="opacity: 1;"><tspan x="0" y="0" dy="0" style="font-family: Arial, sans-serif; font-size: 10px; fill: black; font-weight: bold;">Crimen y castigo</tspan></text></g><g transform="translate(506.1230317644207,280.470106678058)"><text text-anchor="middle" dominant-baseline="text-before-edge" transform="translate(0,-5.5)" style="opacity: 1;"><tspan x="0" y="0" dy="0" style="font-family: Arial, sans-serif; font-size: 10px; fill: black; font-weight: bold;">Solanin</tspan></text></g><g transform="translate(593.9903598822378,280.470106678058)"><text text-anchor="middle" dominant-baseline="text-before-edge" transform="translate(0,-5.5)" style="opacity: 1;"><tspan x="0" y="0" dy="0" style="font-family: Arial, sans-serif; font-size: 10px; fill: black; font-weight: bold;">Dededede #1</tspan></text></g><g transform="translate(444.11081976186773,447.70486618628104)"><text text-anchor="middle" dominant-baseline="text-before-edge" transform="translate(0,-5.5)" style="opacity: 1;"><tspan x="0" y="0" dy="0" style="font-family: Arial, sans-serif; font-size: 10px; fill: black; font-weight: bold;">La llamada de Cthulhu y otros cuentos</tspan></text></g><g transform="translate(525.8168047908257,447.70486618628104)"><text text-anchor="middle" dominant-baseline="text-before-edge" transform="translate(0,-5.5)" style="opacity: 0;"><tspan x="0" y="0" dy="0" style="font-family: Arial, sans-serif; font-size: 10px; fill: black; font-weight: bold;">El aleph</tspan></text></g><g transform="translate(444.18005118628514,113.74316457556651)"><text text-anchor="middle" dominant-baseline="text-before-edge" transform="translate(0,-5.5)" style="opacity: 1;"><tspan x="0" y="0" dy="0" style="font-family: Arial, sans-serif; font-size: 10px; fill: black; font-weight: bold;">Watchmen</tspan></text></g><g transform="translate(525.4622890747617,113.74316457556651)"><text text-anchor="middle" dominant-baseline="text-before-edge" transform="translate(0,-5.5)" style="opacity: 1;"><tspan x="0" y="0" dy="0" style="font-family: Arial, sans-serif; font-size: 10px; fill: black; font-weight: bold;">Batman: A単o Uno</tspan></text></g></g></g><g id="legend" transform="translate(805,20)"><g transform="translate(5,0)"><g class="legendSize" transform="translate(0,0)"><g class="legendCells" transform="translate(50,16)"><g class="cell" transform="translate(0, 25)"><circle class="swatch" r="25" fill="none" stroke="#ccc"/><text class="label" transform="translate( 55,&#10;          5)" font-family="&quot;Arial&quot;, sans-serif" font-size="10px"><tspan x="0" dy="0em">113.9</tspan></text></g><g class="cell" transform="translate(0, 125)"><circle class="swatch" r="50" fill="none" stroke="#ccc"/><text class="label" transform="translate( 55,&#10;          5)" font-family="&quot;Arial&quot;, sans-serif" font-size="10px"><tspan x="0" dy="0em">455.5</tspan></text></g></g><text class="legendTitle" font-family="&quot;Arial&quot;, sans-serif" font-size="12px" font-weight="bold"><tspan x="0" dy="0em">paginas [sum]</tspan></text></g><g class="legendColor" transform="translate(0,224)"><g class="legendCells" transform="translate(0,16)"><g class="cell" transform="translate(0, 0)"><rect class="swatch" height="15" width="15" style="fill: rgb(31, 119, 180);"/><text class="label" transform="translate( 20, 12.5)" font-family="&quot;Arial&quot;, sans-serif" font-size="10px"><tspan x="0" dy="0em">comic</tspan></text></g><g class="cell" transform="translate(0, 21)"><rect class="swatch" height="15" width="15" style="fill: rgb(255, 127, 14);"/><text class="label" transform="translate( 20, 12.5)" font-family="&quot;Arial&quot;, sans-serif" font-size="10px"><tspan x="0" dy="0em">cuentos</tspan></text></g><g class="cell" transform="translate(0, 42)"><rect class="swatch" height="15" width="15" style="fill: rgb(44, 160, 44);"/><text class="label" transform="translate( 20, 12.5)" font-family="&quot;Arial&quot;, sans-serif" font-size="10px"><tspan x="0" dy="0em">manga</tspan></text></g><g class="cell" transform="translate(0, 63)"><rect class="swatch" height="15" width="15" style="fill: rgb(214, 39, 40);"/><text class="label" transform="translate( 20, 12.5)" font-family="&quot;Arial&quot;, sans-serif" font-size="10px"><tspan x="0" dy="0em">novela</tspan></text></g></g><text class="legendTitle" font-family="&quot;Arial&quot;, sans-serif" font-size="12px" font-weight="bold"><tspan x="0" dy="0em">tipo [csvDistinct]</tspan></text></g></g></g></svg>