<svg xmlns="http://www.w3.org/2000/svg" width="1005" height="600"><rect width="1005" height="600" x="0" y="0" fill="#FFFFFF" id="background"/><g id="viz"><g transform="translate(0,0)"><g transform="translate(10,20)"><g><path fill="#f54e8b" d="M0,560C3.7380952380952386,560,3.7380952380952386,560,7.476190476190477,560C11.214285714285715,560,11.214285714285715,560,14.952380952380954,560C18.69047619047619,560,18.69047619047619,560,22.428571428571427,560C26.166666666666668,560,26.166666666666668,560,29.90476190476191,560C33.642857142857146,560,33.642857142857146,560,37.38095238095238,560C41.11904761904762,560,41.11904761904762,560,44.857142857142854,560C48.595238095238095,560,48.595238095238095,560,52.333333333333336,560C56.07142857142858,560,56.07142857142858,560,59.80952380952382,560C63.54761904761905,560,63.54761904761905,560,67.28571428571429,560C71.02380952380952,560,71.02380952380952,560,74.76190476190476,560C78.5,560,78.5,560,82.23809523809524,560C85.97619047619048,560,85.97619047619048,560,89.71428571428571,560C93.45238095238095,560,93.45238095238095,560,97.19047619047619,560C100.92857142857143,560,100.92857142857143,560,104.66666666666667,560C108.4047619047619,560,108.4047619047619,560,112.14285714285714,560C115.88095238095238,560,115.88095238095238,560,119.61904761904763,560C123.35714285714286,560,123.35714285714286,560,127.0952380952381,560C130.83333333333334,560,130.83333333333334,560,134.57142857142858,560C138.3095238095238,560,138.3095238095238,560,142.04761904761904,560C145.78571428571428,560,145.78571428571428,560,149.52380952380952,560C153.26190476190476,560,153.26190476190476,560,157,560C160.73809523809524,560,160.73809523809524,560,164.47619047619048,560C168.21428571428572,560,168.21428571428572,560,171.95238095238096,560C175.6904761904762,560,175.6904761904762,560,179.42857142857142,560C183.16666666666666,560,183.16666666666666,560,186.9047619047619,560C190.64285714285714,560,190.64285714285714,560,194.38095238095238,560C198.1190476190476,560,198.1190476190476,560,201.85714285714283,560C205.59523809523807,560,205.59523809523807,560,209.33333333333334,560C213.07142857142858,560,213.07142857142858,560,216.80952380952382,560C220.54761904761904,560,220.54761904761904,560,224.28571428571428,560C228.02380952380952,560,228.02380952380952,560,231.76190476190476,560C235.5,560,235.5,560,239.23809523809527,560C242.97619047619048,560,242.97619047619048,560,246.71428571428572,560C250.45238095238096,560,250.45238095238096,560,254.1904761904762,560C257.92857142857144,560,257.92857142857144,560,261.66666666666663,560C265.4047619047619,560,265.4047619047619,560,269.14285714285717,560C272.8809523809524,560,272.8809523809524,560,276.61904761904765,560C280.3571428571429,560,280.3571428571429,560,284.0952380952381,560C287.8333333333333,560,287.8333333333333,560,291.57142857142856,560C295.3095238095238,560,295.3095238095238,560,299.04761904761904,560C302.7857142857143,560,302.7857142857143,560,306.5238095238095,560C310.26190476190476,560,310.26190476190476,560,314,560C317.73809523809524,560,317.73809523809524,560,321.4761904761905,560C325.2142857142857,560,325.2142857142857,560,328.95238095238096,560C332.69047619047615,560,332.69047619047615,560,336.4285714285714,560C340.16666666666663,560,340.16666666666663,560,343.9047619047619,560C347.64285714285717,560,347.64285714285717,560,351.3809523809524,560C355.1190476190476,560,355.1190476190476,560,358.85714285714283,560C362.5952380952381,560,362.5952380952381,560,366.3333333333333,560C370.07142857142856,560,370.07142857142856,560,373.8095238095238,560C377.54761904761904,560,377.54761904761904,560,381.2857142857143,560C385.0238095238095,560,385.0238095238095,560,388.76190476190476,560C392.5,560,392.5,560,396.23809523809524,560C399.9761904761905,560,399.9761904761905,560,403.71428571428567,560C407.45238095238096,560,407.45238095238096,560,411.1904761904762,560C414.92857142857144,560,414.92857142857144,560,418.6666666666667,560C422.4047619047619,560,422.4047619047619,560,426.1428571428571,560C429.8809523809524,560,429.8809523809524,560,433.61904761904765,560C437.3571428571429,560,437.3571428571429,560,441.0952380952381,560C444.8333333333333,560,444.8333333333333,560,448.57142857142856,560C452.30952380952385,560,452.30952380952385,560,456.0476190476191,560C459.78571428571433,560,459.78571428571433,560,463.5238095238095,560C467.26190476190476,560,467.26190476190476,560,471,560C474.7380952380953,560,474.7380952380953,560,478.47619047619054,560C482.2142857142858,560,482.2142857142858,560,485.95238095238096,560C489.6904761904762,560,489.6904761904762,560,493.42857142857144,560C497.16666666666663,560,497.16666666666663,536,500.90476190476187,536C504.6428571428571,536,504.6428571428571,560,508.3809523809524,560C512.1190476190477,560,512.1190476190477,560,515.8571428571429,560C519.5952380952381,560,519.5952380952381,524.8000000000001,523.3333333333333,524.8000000000001C527.0714285714286,524.8000000000001,527.0714285714286,496,530.8095238095239,496C534.547619047619,496,534.547619047619,502.4,538.2857142857143,502.4C542.0238095238095,502.4,542.0238095238095,560,545.7619047619047,560C549.5,560,549.5,499.20000000000005,553.2380952380953,499.20000000000005C556.9761904761906,499.20000000000005,556.9761904761906,539.2,560.7142857142858,539.2C564.452380952381,539.2,564.452380952381,540.8000000000001,568.1904761904761,540.8000000000001C571.9285714285713,540.8000000000001,571.9285714285713,560,575.6666666666666,560C579.4047619047619,560,579.4047619047619,560,583.1428571428571,560C586.8809523809523,560,586.8809523809523,547.1999999999999,590.6190476190476,547.1999999999999C594.3571428571429,547.1999999999999,594.3571428571429,539.2,598.0952380952381,539.2C601.8333333333333,539.2,601.8333333333333,560,605.5714285714286,560C609.3095238095239,560,609.3095238095239,560,613.047619047619,560C616.7857142857142,560,616.7857142857142,499.20000000000005,620.5238095238095,499.20000000000005C624.2619047619048,499.20000000000005,624.2619047619048,560,628,560C631.7380952380952,560,631.7380952380952,560,635.4761904761905,560C639.2142857142858,560,639.2142857142858,497.6,642.952380952381,497.6C646.6904761904761,497.6,646.6904761904761,560,650.4285714285714,560C654.1666666666667,560,654.1666666666667,560,657.9047619047619,560C661.6428571428571,560,661.6428571428571,497.6,665.3809523809524,497.6C669.1190476190476,497.6,669.1190476190476,486.4,672.8571428571428,486.4C676.5952380952381,486.4,676.5952380952381,560,680.3333333333334,560C684.0714285714287,560,684.0714285714287,560,687.8095238095239,560C691.547619047619,560,691.547619047619,560,695.2857142857142,560C699.0238095238095,560,699.0238095238095,560,702.7619047619048,560C706.5,560,706.5,560,710.2380952380953,560C713.9761904761905,560,713.9761904761905,560,717.7142857142857,560C721.452380952381,560,721.452380952381,560,725.1904761904763,560C728.9285714285714,560,728.9285714285714,560,732.6666666666666,560C736.4047619047619,560,736.4047619047619,560,740.1428571428571,560C743.8809523809523,560,743.8809523809523,560,747.6190476190476,560C751.3571428571429,560,751.3571428571429,560,755.0952380952381,560C758.8333333333333,560,758.8333333333333,560,762.5714285714286,560C766.3095238095239,560,766.3095238095239,560,770.047619047619,560C773.7857142857142,560,773.7857142857142,560,777.5238095238095,560C781.2619047619048,560,781.2619047619048,560,785,560L785,560C781.2619047619048,560,781.2619047619048,560,777.5238095238095,560C773.7857142857142,560,773.7857142857142,560,770.047619047619,560C766.3095238095239,560,766.3095238095239,560,762.5714285714286,560C758.8333333333333,560,758.8333333333333,560,755.0952380952381,560C751.3571428571429,560,751.3571428571429,560,747.6190476190476,560C743.8809523809523,560,743.8809523809523,560,740.1428571428571,560C736.4047619047619,560,736.4047619047619,560,732.6666666666666,560C728.9285714285714,560,728.9285714285714,560,725.1904761904763,560C721.452380952381,560,721.452380952381,560,717.7142857142857,560C713.9761904761905,560,713.9761904761905,560,710.2380952380953,560C706.5,560,706.5,560,702.7619047619048,560C699.0238095238095,560,699.0238095238095,560,695.2857142857142,560C691.547619047619,560,691.547619047619,560,687.8095238095239,560C684.0714285714287,560,684.0714285714287,560,680.3333333333334,560C676.5952380952381,560,676.5952380952381,560,672.8571428571428,560C669.1190476190476,560,669.1190476190476,560,665.3809523809524,560C661.6428571428571,560,661.6428571428571,560,657.9047619047619,560C654.1666666666667,560,654.1666666666667,560,650.4285714285714,560C646.6904761904761,560,646.6904761904761,560,642.952380952381,560C639.2142857142858,560,639.2142857142858,560,635.4761904761905,560C631.7380952380952,560,631.7380952380952,560,628,560C624.2619047619048,560,624.2619047619048,560,620.5238095238095,560C616.7857142857142,560,616.7857142857142,560,613.047619047619,560C609.3095238095239,560,609.3095238095239,560,605.5714285714286,560C601.8333333333333,560,601.8333333333333,560,598.0952380952381,560C594.3571428571429,560,594.3571428571429,560,590.6190476190476,560C586.8809523809523,560,586.8809523809523,560,583.1428571428571,560C579.4047619047619,560,579.4047619047619,560,575.6666666666666,560C571.9285714285713,560,571.9285714285713,560,568.1904761904761,560C564.452380952381,560,564.452380952381,560,560.7142857142858,560C556.9761904761906,560,556.9761904761906,560,553.2380952380953,560C549.5,560,549.5,560,545.7619047619047,560C542.0238095238095,560,542.0238095238095,560,538.2857142857143,560C534.547619047619,560,534.547619047619,560,530.8095238095239,560C527.0714285714286,560,527.0714285714286,560,523.3333333333333,560C519.5952380952381,560,519.5952380952381,560,515.8571428571429,560C512.1190476190477,560,512.1190476190477,560,508.3809523809524,560C504.6428571428571,560,504.6428571428571,560,500.90476190476187,560C497.16666666666663,560,497.16666666666663,560,493.42857142857144,560C489.6904761904762,560,489.6904761904762,560,485.95238095238096,560C482.2142857142858,560,482.2142857142858,560,478.47619047619054,560C474.7380952380953,560,474.7380952380953,560,471,560C467.26190476190476,560,467.26190476190476,560,463.5238095238095,560C459.78571428571433,560,459.78571428571433,560,456.0476190476191,560C452.30952380952385,560,452.30952380952385,560,448.57142857142856,560C444.8333333333333,560,444.8333333333333,560,441.0952380952381,560C437.3571428571429,560,437.3571428571429,560,433.61904761904765,560C429.8809523809524,560,429.8809523809524,560,426.1428571428571,560C422.4047619047619,560,422.4047619047619,560,418.6666666666667,560C414.92857142857144,560,414.92857142857144,560,411.1904761904762,560C407.45238095238096,560,407.45238095238096,560,403.71428571428567,560C399.9761904761905,560,399.9761904761905,560,396.23809523809524,560C392.5,560,392.5,560,388.76190476190476,560C385.0238095238095,560,385.0238095238095,560,381.2857142857143,560C377.54761904761904,560,377.54761904761904,560,373.8095238095238,560C370.07142857142856,560,370.07142857142856,560,366.3333333333333,560C362.5952380952381,560,362.5952380952381,560,358.85714285714283,560C355.1190476190476,560,355.1190476190476,560,351.3809523809524,560C347.64285714285717,560,347.64285714285717,560,343.9047619047619,560C340.16666666666663,560,340.16666666666663,560,336.4285714285714,560C332.69047619047615,560,332.69047619047615,560,328.95238095238096,560C325.2142857142857,560,325.2142857142857,560,321.4761904761905,560C317.73809523809524,560,317.73809523809524,560,314,560C310.26190476190476,560,310.26190476190476,560,306.5238095238095,560C302.7857142857143,560,302.7857142857143,560,299.04761904761904,560C295.3095238095238,560,295.3095238095238,560,291.57142857142856,560C287.8333333333333,560,287.8333333333333,560,284.0952380952381,560C280.3571428571429,560,280.3571428571429,560,276.61904761904765,560C272.8809523809524,560,272.8809523809524,560,269.14285714285717,560C265.4047619047619,560,265.4047619047619,560,261.66666666666663,560C257.92857142857144,560,257.92857142857144,560,254.1904761904762,560C250.45238095238096,560,250.45238095238096,560,246.71428571428572,560C242.97619047619048,560,242.97619047619048,560,239.23809523809527,560C235.5,560,235.5,560,231.76190476190476,560C228.02380952380952,560,228.02380952380952,560,224.28571428571428,560C220.54761904761904,560,220.54761904761904,560,216.80952380952382,560C213.07142857142858,560,213.07142857142858,560,209.33333333333334,560C205.59523809523807,560,205.59523809523807,560,201.85714285714283,560C198.1190476190476,560,198.1190476190476,560,194.38095238095238,560C190.64285714285714,560,190.64285714285714,560,186.9047619047619,560C183.16666666666666,560,183.16666666666666,560,179.42857142857142,560C175.6904761904762,560,175.6904761904762,560,171.95238095238096,560C168.21428571428572,560,168.21428571428572,560,164.47619047619048,560C160.73809523809524,560,160.73809523809524,560,157,560C153.26190476190476,560,153.26190476190476,560,149.52380952380952,560C145.78571428571428,560,145.78571428571428,560,142.04761904761904,560C138.3095238095238,560,138.3095238095238,560,134.57142857142858,560C130.83333333333334,560,130.83333333333334,560,127.0952380952381,560C123.35714285714286,560,123.35714285714286,560,119.61904761904763,560C115.88095238095238,560,115.88095238095238,560,112.14285714285714,560C108.4047619047619,560,108.4047619047619,560,104.66666666666667,560C100.92857142857143,560,100.92857142857143,560,97.19047619047619,560C93.45238095238095,560,93.45238095238095,560,89.71428571428571,560C85.97619047619048,560,85.97619047619048,560,82.23809523809524,560C78.5,560,78.5,560,74.76190476190476,560C71.02380952380952,560,71.02380952380952,560,67.28571428571429,560C63.54761904761905,560,63.54761904761905,560,59.80952380952382,560C56.07142857142858,560,56.07142857142858,560,52.333333333333336,560C48.595238095238095,560,48.595238095238095,560,44.857142857142854,560C41.11904761904762,560,41.11904761904762,560,37.38095238095238,560C33.642857142857146,560,33.642857142857146,560,29.90476190476191,560C26.166666666666668,560,26.166666666666668,560,22.428571428571427,560C18.69047619047619,560,18.69047619047619,560,14.952380952380954,560C11.214285714285715,560,11.214285714285715,560,7.476190476190477,560C3.7380952380952386,560,3.7380952380952386,560,0,560Z"><title>comic</title></path><path fill="#135ae1" d="M0,560C3.7380952380952386,560,3.7380952380952386,560,7.476190476190477,560C11.214285714285715,560,11.214285714285715,560,14.952380952380954,560C18.69047619047619,560,18.69047619047619,560,22.428571428571427,560C26.166666666666668,560,26.166666666666668,560,29.90476190476191,560C33.642857142857146,560,33.642857142857146,560,37.38095238095238,560C41.11904761904762,560,41.11904761904762,560,44.857142857142854,560C48.595238095238095,560,48.595238095238095,560,52.333333333333336,560C56.07142857142858,560,56.07142857142858,560,59.80952380952382,560C63.54761904761905,560,63.54761904761905,560,67.28571428571429,560C71.02380952380952,560,71.02380952380952,560,74.76190476190476,560C78.5,560,78.5,560,82.23809523809524,560C85.97619047619048,560,85.97619047619048,560,89.71428571428571,560C93.45238095238095,560,93.45238095238095,560,97.19047619047619,560C100.92857142857143,560,100.92857142857143,560,104.66666666666667,560C108.4047619047619,560,108.4047619047619,560,112.14285714285714,560C115.88095238095238,560,115.88095238095238,560,119.61904761904763,560C123.35714285714286,560,123.35714285714286,560,127.0952380952381,560C130.83333333333334,560,130.83333333333334,560,134.57142857142858,560C138.3095238095238,560,138.3095238095238,560,142.04761904761904,560C145.78571428571428,560,145.78571428571428,560,149.52380952380952,560C153.26190476190476,560,153.26190476190476,560,157,560C160.73809523809524,560,160.73809523809524,560,164.47619047619048,560C168.21428571428572,560,168.21428571428572,560,171.95238095238096,560C175.6904761904762,560,175.6904761904762,560,179.42857142857142,560C183.16666666666666,560,183.16666666666666,560,186.9047619047619,560C190.64285714285714,560,190.64285714285714,560,194.38095238095238,560C198.1190476190476,560,198.1190476190476,560,201.85714285714283,560C205.59523809523807,560,205.59523809523807,560,209.33333333333334,560C213.07142857142858,560,213.07142857142858,560,216.80952380952382,560C220.54761904761904,560,220.54761904761904,560,224.28571428571428,560C228.02380952380952,560,228.02380952380952,560,231.76190476190476,560C235.5,560,235.5,560,239.23809523809527,560C242.97619047619048,560,242.97619047619048,560,246.71428571428572,560C250.45238095238096,560,250.45238095238096,560,254.1904761904762,560C257.92857142857144,560,257.92857142857144,560,261.66666666666663,560C265.4047619047619,560,265.4047619047619,560,269.14285714285717,560C272.8809523809524,560,272.8809523809524,560,276.61904761904765,560C280.3571428571429,560,280.3571428571429,560,284.0952380952381,560C287.8333333333333,560,287.8333333333333,560,291.57142857142856,560C295.3095238095238,560,295.3095238095238,560,299.04761904761904,560C302.7857142857143,560,302.7857142857143,560,306.5238095238095,560C310.26190476190476,560,310.26190476190476,560,314,560C317.73809523809524,560,317.73809523809524,560,321.4761904761905,560C325.2142857142857,560,325.2142857142857,560,328.95238095238096,560C332.69047619047615,560,332.69047619047615,560,336.4285714285714,560C340.16666666666663,560,340.16666666666663,560,343.9047619047619,560C347.64285714285717,560,347.64285714285717,560,351.3809523809524,560C355.1190476190476,560,355.1190476190476,560,358.85714285714283,560C362.5952380952381,560,362.5952380952381,560,366.3333333333333,560C370.07142857142856,560,370.07142857142856,560,373.8095238095238,560C377.54761904761904,560,377.54761904761904,560,381.2857142857143,560C385.0238095238095,560,385.0238095238095,560,388.76190476190476,560C392.5,560,392.5,560,396.23809523809524,560C399.9761904761905,560,399.9761904761905,560,403.71428571428567,560C407.45238095238096,560,407.45238095238096,560,411.1904761904762,560C414.92857142857144,560,414.92857142857144,560,418.6666666666667,560C422.4047619047619,560,422.4047619047619,560,426.1428571428571,560C429.8809523809524,560,429.8809523809524,560,433.61904761904765,560C437.3571428571429,560,437.3571428571429,560,441.0952380952381,560C444.8333333333333,560,444.8333333333333,560,448.57142857142856,560C452.30952380952385,560,452.30952380952385,560,456.0476190476191,560C459.78571428571433,560,459.78571428571433,560,463.5238095238095,560C467.26190476190476,560,467.26190476190476,560,471,560C474.7380952380953,560,474.7380952380953,560,478.47619047619054,560C482.2142857142858,560,482.2142857142858,560,485.95238095238096,560C489.6904761904762,560,489.6904761904762,560,493.42857142857144,560C497.16666666666663,560,497.16666666666663,536,500.90476190476187,536C504.6428571428571,536,504.6428571428571,560,508.3809523809524,560C512.1190476190477,560,512.1190476190477,560,515.8571428571429,560C519.5952380952381,560,519.5952380952381,524.8000000000001,523.3333333333333,524.8000000000001C527.0714285714286,524.8000000000001,527.0714285714286,496,530.8095238095239,496C534.547619047619,496,534.547619047619,502.4,538.2857142857143,502.4C542.0238095238095,502.4,542.0238095238095,560,545.7619047619047,560C549.5,560,549.5,499.20000000000005,553.2380952380953,499.20000000000005C556.9761904761906,499.20000000000005,556.9761904761906,539.2,560.7142857142858,539.2C564.452380952381,539.2,564.452380952381,540.8000000000001,568.1904761904761,540.8000000000001C571.9285714285713,540.8000000000001,571.9285714285713,560,575.6666666666666,560C579.4047619047619,560,579.4047619047619,560,583.1428571428571,560C586.8809523809523,560,586.8809523809523,547.1999999999999,590.6190476190476,547.1999999999999C594.3571428571429,547.1999999999999,594.3571428571429,539.2,598.0952380952381,539.2C601.8333333333333,539.2,601.8333333333333,560,605.5714285714286,560C609.3095238095239,560,609.3095238095239,560,613.047619047619,560C616.7857142857142,560,616.7857142857142,499.20000000000005,620.5238095238095,499.20000000000005C624.2619047619048,499.20000000000005,624.2619047619048,560,628,560C631.7380952380952,560,631.7380952380952,560,635.4761904761905,560C639.2142857142858,560,639.2142857142858,497.6,642.952380952381,497.6C646.6904761904761,497.6,646.6904761904761,560,650.4285714285714,560C654.1666666666667,560,654.1666666666667,560,657.9047619047619,560C661.6428571428571,560,661.6428571428571,497.6,665.3809523809524,497.6C669.1190476190476,497.6,669.1190476190476,486.4,672.8571428571428,486.4C676.5952380952381,486.4,676.5952380952381,560,680.3333333333334,560C684.0714285714287,560,684.0714285714287,560,687.8095238095239,560C691.547619047619,560,691.547619047619,560,695.2857142857142,560C699.0238095238095,560,699.0238095238095,560,702.7619047619048,560C706.5,560,706.5,560,710.2380952380953,560C713.9761904761905,560,713.9761904761905,560,717.7142857142857,560C721.452380952381,560,721.452380952381,526.4,725.1904761904763,526.4C728.9285714285714,526.4,728.9285714285714,560,732.6666666666666,560C736.4047619047619,560,736.4047619047619,560,740.1428571428571,560C743.8809523809523,560,743.8809523809523,524.8000000000001,747.6190476190476,524.8000000000001C751.3571428571429,524.8000000000001,751.3571428571429,523.2,755.0952380952381,523.2C758.8333333333333,523.2,758.8333333333333,560,762.5714285714286,560C766.3095238095239,560,766.3095238095239,560,770.047619047619,560C773.7857142857142,560,773.7857142857142,507.2,777.5238095238095,507.2C781.2619047619048,507.2,781.2619047619048,531.2,785,531.2L785,560C781.2619047619048,560,781.2619047619048,560,777.5238095238095,560C773.7857142857142,560,773.7857142857142,560,770.047619047619,560C766.3095238095239,560,766.3095238095239,560,762.5714285714286,560C758.8333333333333,560,758.8333333333333,560,755.0952380952381,560C751.3571428571429,560,751.3571428571429,560,747.6190476190476,560C743.8809523809523,560,743.8809523809523,560,740.1428571428571,560C736.4047619047619,560,736.4047619047619,560,732.6666666666666,560C728.9285714285714,560,728.9285714285714,560,725.1904761904763,560C721.452380952381,560,721.452380952381,560,717.7142857142857,560C713.9761904761905,560,713.9761904761905,560,710.2380952380953,560C706.5,560,706.5,560,702.7619047619048,560C699.0238095238095,560,699.0238095238095,560,695.2857142857142,560C691.547619047619,560,691.547619047619,560,687.8095238095239,560C684.0714285714287,560,684.0714285714287,560,680.3333333333334,560C676.5952380952381,560,676.5952380952381,486.4,672.8571428571428,486.4C669.1190476190476,486.4,669.1190476190476,497.6,665.3809523809524,497.6C661.6428571428571,497.6,661.6428571428571,560,657.9047619047619,560C654.1666666666667,560,654.1666666666667,560,650.4285714285714,560C646.6904761904761,560,646.6904761904761,497.6,642.952380952381,497.6C639.2142857142858,497.6,639.2142857142858,560,635.4761904761905,560C631.7380952380952,560,631.7380952380952,560,628,560C624.2619047619048,560,624.2619047619048,499.20000000000005,620.5238095238095,499.20000000000005C616.7857142857142,499.20000000000005,616.7857142857142,560,613.047619047619,560C609.3095238095239,560,609.3095238095239,560,605.5714285714286,560C601.8333333333333,560,601.8333333333333,539.2,598.0952380952381,539.2C594.3571428571429,539.2,594.3571428571429,547.1999999999999,590.6190476190476,547.1999999999999C586.8809523809523,547.1999999999999,586.8809523809523,560,583.1428571428571,560C579.4047619047619,560,579.4047619047619,560,575.6666666666666,560C571.9285714285713,560,571.9285714285713,540.8000000000001,568.1904761904761,540.8000000000001C564.452380952381,540.8000000000001,564.452380952381,539.2,560.7142857142858,539.2C556.9761904761906,539.2,556.9761904761906,499.20000000000005,553.2380952380953,499.20000000000005C549.5,499.20000000000005,549.5,560,545.7619047619047,560C542.0238095238095,560,542.0238095238095,502.4,538.2857142857143,502.4C534.547619047619,502.4,534.547619047619,496,530.8095238095239,496C527.0714285714286,496,527.0714285714286,524.8000000000001,523.3333333333333,524.8000000000001C519.5952380952381,524.8000000000001,519.5952380952381,560,515.8571428571429,560C512.1190476190477,560,512.1190476190477,560,508.3809523809524,560C504.6428571428571,560,504.6428571428571,536,500.90476190476187,536C497.16666666666663,536,497.16666666666663,560,493.42857142857144,560C489.6904761904762,560,489.6904761904762,560,485.95238095238096,560C482.2142857142858,560,482.2142857142858,560,478.47619047619054,560C474.7380952380953,560,474.7380952380953,560,471,560C467.26190476190476,560,467.26190476190476,560,463.5238095238095,560C459.78571428571433,560,459.78571428571433,560,456.0476190476191,560C452.30952380952385,560,452.30952380952385,560,448.57142857142856,560C444.8333333333333,560,444.8333333333333,560,441.0952380952381,560C437.3571428571429,560,437.3571428571429,560,433.61904761904765,560C429.8809523809524,560,429.8809523809524,560,426.1428571428571,560C422.4047619047619,560,422.4047619047619,560,418.6666666666667,560C414.92857142857144,560,414.92857142857144,560,411.1904761904762,560C407.45238095238096,560,407.45238095238096,560,403.71428571428567,560C399.9761904761905,560,399.9761904761905,560,396.23809523809524,560C392.5,560,392.5,560,388.76190476190476,560C385.0238095238095,560,385.0238095238095,560,381.2857142857143,560C377.54761904761904,560,377.54761904761904,560,373.8095238095238,560C370.07142857142856,560,370.07142857142856,560,366.3333333333333,560C362.5952380952381,560,362.5952380952381,560,358.85714285714283,560C355.1190476190476,560,355.1190476190476,560,351.3809523809524,560C347.64285714285717,560,347.64285714285717,560,343.9047619047619,560C340.16666666666663,560,340.16666666666663,560,336.4285714285714,560C332.69047619047615,560,332.69047619047615,560,328.95238095238096,560C325.2142857142857,560,325.2142857142857,560,321.4761904761905,560C317.73809523809524,560,317.73809523809524,560,314,560C310.26190476190476,560,310.26190476190476,560,306.5238095238095,560C302.7857142857143,560,302.7857142857143,560,299.04761904761904,560C295.3095238095238,560,295.3095238095238,560,291.57142857142856,560C287.8333333333333,560,287.8333333333333,560,284.0952380952381,560C280.3571428571429,560,280.3571428571429,560,276.61904761904765,560C272.8809523809524,560,272.8809523809524,560,269.14285714285717,560C265.4047619047619,560,265.4047619047619,560,261.66666666666663,560C257.92857142857144,560,257.92857142857144,560,254.1904761904762,560C250.45238095238096,560,250.45238095238096,560,246.71428571428572,560C242.97619047619048,560,242.97619047619048,560,239.23809523809527,560C235.5,560,235.5,560,231.76190476190476,560C228.02380952380952,560,228.02380952380952,560,224.28571428571428,560C220.54761904761904,560,220.54761904761904,560,216.80952380952382,560C213.07142857142858,560,213.07142857142858,560,209.33333333333334,560C205.59523809523807,560,205.59523809523807,560,201.85714285714283,560C198.1190476190476,560,198.1190476190476,560,194.38095238095238,560C190.64285714285714,560,190.64285714285714,560,186.9047619047619,560C183.16666666666666,560,183.16666666666666,560,179.42857142857142,560C175.6904761904762,560,175.6904761904762,560,171.95238095238096,560C168.21428571428572,560,168.21428571428572,560,164.47619047619048,560C160.73809523809524,560,160.73809523809524,560,157,560C153.26190476190476,560,153.26190476190476,560,149.52380952380952,560C145.78571428571428,560,145.78571428571428,560,142.04761904761904,560C138.3095238095238,560,138.3095238095238,560,134.57142857142858,560C130.83333333333334,560,130.83333333333334,560,127.0952380952381,560C123.35714285714286,560,123.35714285714286,560,119.61904761904763,560C115.88095238095238,560,115.88095238095238,560,112.14285714285714,560C108.4047619047619,560,108.4047619047619,560,104.66666666666667,560C100.92857142857143,560,100.92857142857143,560,97.19047619047619,560C93.45238095238095,560,93.45238095238095,560,89.71428571428571,560C85.97619047619048,560,85.97619047619048,560,82.23809523809524,560C78.5,560,78.5,560,74.76190476190476,560C71.02380952380952,560,71.02380952380952,560,67.28571428571429,560C63.54761904761905,560,63.54761904761905,560,59.80952380952382,560C56.07142857142858,560,56.07142857142858,560,52.333333333333336,560C48.595238095238095,560,48.595238095238095,560,44.857142857142854,560C41.11904761904762,560,41.11904761904762,560,37.38095238095238,560C33.642857142857146,560,33.642857142857146,560,29.90476190476191,560C26.166666666666668,560,26.166666666666668,560,22.428571428571427,560C18.69047619047619,560,18.69047619047619,560,14.952380952380954,560C11.214285714285715,560,11.214285714285715,560,7.476190476190477,560C3.7380952380952386,560,3.7380952380952386,560,0,560Z"><title>cuentos</title></path><path fill="#2197ff" d="M0,560C3.7380952380952386,560,3.7380952380952386,560,7.476190476190477,560C11.214285714285715,560,11.214285714285715,560,14.952380952380954,560C18.69047619047619,560,18.69047619047619,560,22.428571428571427,560C26.166666666666668,560,26.166666666666668,560,29.90476190476191,560C33.642857142857146,560,33.642857142857146,560,37.38095238095238,560C41.11904761904762,560,41.11904761904762,560,44.857142857142854,560C48.595238095238095,560,48.595238095238095,560,52.333333333333336,560C56.07142857142858,560,56.07142857142858,560,59.80952380952382,560C63.54761904761905,560,63.54761904761905,560,67.28571428571429,560C71.02380952380952,560,71.02380952380952,560,74.76190476190476,560C78.5,560,78.5,560,82.23809523809524,560C85.97619047619048,560,85.97619047619048,560,89.71428571428571,560C93.45238095238095,560,93.45238095238095,560,97.19047619047619,560C100.92857142857143,560,100.92857142857143,560,104.66666666666667,560C108.4047619047619,560,108.4047619047619,560,112.14285714285714,560C115.88095238095238,560,115.88095238095238,560,119.61904761904763,560C123.35714285714286,560,123.35714285714286,560,127.0952380952381,560C130.83333333333334,560,130.83333333333334,560,134.57142857142858,560C138.3095238095238,560,138.3095238095238,560,142.04761904761904,560C145.78571428571428,560,145.78571428571428,560,149.52380952380952,560C153.26190476190476,560,153.26190476190476,560,157,560C160.73809523809524,560,160.73809523809524,560,164.47619047619048,560C168.21428571428572,560,168.21428571428572,560,171.95238095238096,560C175.6904761904762,560,175.6904761904762,560,179.42857142857142,560C183.16666666666666,560,183.16666666666666,560,186.9047619047619,560C190.64285714285714,560,190.64285714285714,560,194.38095238095238,560C198.1190476190476,560,198.1190476190476,560,201.85714285714283,560C205.59523809523807,560,205.59523809523807,560,209.33333333333334,560C213.07142857142858,560,213.07142857142858,560,216.80952380952382,560C220.54761904761904,560,220.54761904761904,560,224.28571428571428,560C228.02380952380952,560,228.02380952380952,560,231.76190476190476,560C235.5,560,235.5,560,239.23809523809527,560C242.97619047619048,560,242.97619047619048,560,246.71428571428572,560C250.45238095238096,560,250.45238095238096,560,254.1904761904762,560C257.92857142857144,560,257.92857142857144,560,261.66666666666663,560C265.4047619047619,560,265.4047619047619,560,269.14285714285717,560C272.8809523809524,560,272.8809523809524,560,276.61904761904765,560C280.3571428571429,560,280.3571428571429,560,284.0952380952381,560C287.8333333333333,560,287.8333333333333,560,291.57142857142856,560C295.3095238095238,560,295.3095238095238,560,299.04761904761904,560C302.7857142857143,560,302.7857142857143,560,306.5238095238095,560C310.26190476190476,560,310.26190476190476,560,314,560C317.73809523809524,560,317.73809523809524,560,321.4761904761905,560C325.2142857142857,560,325.2142857142857,560,328.95238095238096,560C332.69047619047615,560,332.69047619047615,560,336.4285714285714,560C340.16666666666663,560,340.16666666666663,560,343.9047619047619,560C347.64285714285717,560,347.64285714285717,560,351.3809523809524,560C355.1190476190476,560,355.1190476190476,560,358.85714285714283,560C362.5952380952381,560,362.5952380952381,560,366.3333333333333,560C370.07142857142856,560,370.07142857142856,507.2,373.8095238095238,507.2C377.54761904761904,507.2,377.54761904761904,560,381.2857142857143,560C385.0238095238095,560,385.0238095238095,560,388.76190476190476,560C392.5,560,392.5,560,396.23809523809524,560C399.9761904761905,560,399.9761904761905,465.59999999999997,403.71428571428567,465.59999999999997C407.45238095238096,465.59999999999997,407.45238095238096,560,411.1904761904762,560C414.92857142857144,560,414.92857142857144,560,418.6666666666667,560C422.4047619047619,560,422.4047619047619,560,426.1428571428571,560C429.8809523809524,560,429.8809523809524,560,433.61904761904765,560C437.3571428571429,560,437.3571428571429,560,441.0952380952381,560C444.8333333333333,560,444.8333333333333,560,448.57142857142856,560C452.30952380952385,560,452.30952380952385,560,456.0476190476191,560C459.78571428571433,560,459.78571428571433,560,463.5238095238095,560C467.26190476190476,560,467.26190476190476,560,471,560C474.7380952380953,560,474.7380952380953,560,478.47619047619054,560C482.2142857142858,560,482.2142857142858,520,485.95238095238096,520C489.6904761904762,520,489.6904761904762,560,493.42857142857144,560C497.16666666666663,560,497.16666666666663,536,500.90476190476187,536C504.6428571428571,536,504.6428571428571,560,508.3809523809524,560C512.1190476190477,560,512.1190476190477,560,515.8571428571429,560C519.5952380952381,560,519.5952380952381,524.8000000000001,523.3333333333333,524.8000000000001C527.0714285714286,524.8000000000001,527.0714285714286,496,530.8095238095239,496C534.547619047619,496,534.547619047619,502.4,538.2857142857143,502.4C542.0238095238095,502.4,542.0238095238095,560,545.7619047619047,560C549.5,560,549.5,499.20000000000005,553.2380952380953,499.20000000000005C556.9761904761906,499.20000000000005,556.9761904761906,539.2,560.7142857142858,539.2C564.452380952381,539.2,564.452380952381,540.8000000000001,568.1904761904761,540.8000000000001C571.9285714285713,540.8000000000001,571.9285714285713,560,575.6666666666666,560C579.4047619047619,560,579.4047619047619,560,583.1428571428571,560C586.8809523809523,560,586.8809523809523,547.1999999999999,590.6190476190476,547.1999999999999C594.3571428571429,547.1999999999999,594.3571428571429,539.2,598.0952380952381,539.2C601.8333333333333,539.2,601.8333333333333,505.59999999999997,605.5714285714286,505.59999999999997C609.3095238095239,505.59999999999997,609.3095238095239,560,613.047619047619,560C616.7857142857142,560,616.7857142857142,499.20000000000005,620.5238095238095,499.20000000000005C624.2619047619048,499.20000000000005,624.2619047619048,560,628,560C631.7380952380952,560,631.7380952380952,560,635.4761904761905,560C639.2142857142858,560,639.2142857142858,497.6,642.952380952381,497.6C646.6904761904761,497.6,646.6904761904761,560,650.4285714285714,560C654.1666666666667,560,654.1666666666667,560,657.9047619047619,560C661.6428571428571,560,661.6428571428571,497.6,665.3809523809524,497.6C669.1190476190476,497.6,669.1190476190476,486.4,672.8571428571428,486.4C676.5952380952381,486.4,676.5952380952381,560,680.3333333333334,560C684.0714285714287,560,684.0714285714287,560,687.8095238095239,560C691.547619047619,560,691.547619047619,560,695.2857142857142,560C699.0238095238095,560,699.0238095238095,560,702.7619047619048,560C706.5,560,706.5,560,710.2380952380953,560C713.9761904761905,560,713.9761904761905,560,717.7142857142857,560C721.452380952381,560,721.452380952381,526.4,725.1904761904763,526.4C728.9285714285714,526.4,728.9285714285714,560,732.6666666666666,560C736.4047619047619,560,736.4047619047619,560,740.1428571428571,560C743.8809523809523,560,743.8809523809523,524.8000000000001,747.6190476190476,524.8000000000001C751.3571428571429,524.8000000000001,751.3571428571429,523.2,755.0952380952381,523.2C758.8333333333333,523.2,758.8333333333333,560,762.5714285714286,560C766.3095238095239,560,766.3095238095239,560,770.047619047619,560C773.7857142857142,560,773.7857142857142,507.2,777.5238095238095,507.2C781.2619047619048,507.2,781.2619047619048,531.2,785,531.2L785,531.2C781.2619047619048,531.2,781.2619047619048,507.2,777.5238095238095,507.2C773.7857142857142,507.2,773.7857142857142,560,770.047619047619,560C766.3095238095239,560,766.3095238095239,560,762.5714285714286,560C758.8333333333333,560,758.8333333333333,523.2,755.0952380952381,523.2C751.3571428571429,523.2,751.3571428571429,524.8000000000001,747.6190476190476,524.8000000000001C743.8809523809523,524.8000000000001,743.8809523809523,560,740.1428571428571,560C736.4047619047619,560,736.4047619047619,560,732.6666666666666,560C728.9285714285714,560,728.9285714285714,526.4,725.1904761904763,526.4C721.452380952381,526.4,721.452380952381,560,717.7142857142857,560C713.9761904761905,560,713.9761904761905,560,710.2380952380953,560C706.5,560,706.5,560,702.7619047619048,560C699.0238095238095,560,699.0238095238095,560,695.2857142857142,560C691.547619047619,560,691.547619047619,560,687.8095238095239,560C684.0714285714287,560,684.0714285714287,560,680.3333333333334,560C676.5952380952381,560,676.5952380952381,486.4,672.8571428571428,486.4C669.1190476190476,486.4,669.1190476190476,497.6,665.3809523809524,497.6C661.6428571428571,497.6,661.6428571428571,560,657.9047619047619,560C654.1666666666667,560,654.1666666666667,560,650.4285714285714,560C646.6904761904761,560,646.6904761904761,497.6,642.952380952381,497.6C639.2142857142858,497.6,639.2142857142858,560,635.4761904761905,560C631.7380952380952,560,631.7380952380952,560,628,560C624.2619047619048,560,624.2619047619048,499.20000000000005,620.5238095238095,499.20000000000005C616.7857142857142,499.20000000000005,616.7857142857142,560,613.047619047619,560C609.3095238095239,560,609.3095238095239,560,605.5714285714286,560C601.8333333333333,560,601.8333333333333,539.2,598.0952380952381,539.2C594.3571428571429,539.2,594.3571428571429,547.1999999999999,590.6190476190476,547.1999999999999C586.8809523809523,547.1999999999999,586.8809523809523,560,583.1428571428571,560C579.4047619047619,560,579.4047619047619,560,575.6666666666666,560C571.9285714285713,560,571.9285714285713,540.8000000000001,568.1904761904761,540.8000000000001C564.452380952381,540.8000000000001,564.452380952381,539.2,560.7142857142858,539.2C556.9761904761906,539.2,556.9761904761906,499.20000000000005,553.2380952380953,499.20000000000005C549.5,499.20000000000005,549.5,560,545.7619047619047,560C542.0238095238095,560,542.0238095238095,502.4,538.2857142857143,502.4C534.547619047619,502.4,534.547619047619,496,530.8095238095239,496C527.0714285714286,496,527.0714285714286,524.8000000000001,523.3333333333333,524.8000000000001C519.5952380952381,524.8000000000001,519.5952380952381,560,515.8571428571429,560C512.1190476190477,560,512.1190476190477,560,508.3809523809524,560C504.6428571428571,560,504.6428571428571,536,500.90476190476187,536C497.16666666666663,536,497.16666666666663,560,493.42857142857144,560C489.6904761904762,560,489.6904761904762,560,485.95238095238096,560C482.2142857142858,560,482.2142857142858,560,478.47619047619054,560C474.7380952380953,560,474.7380952380953,560,471,560C467.26190476190476,560,467.26190476190476,560,463.5238095238095,560C459.78571428571433,560,459.78571428571433,560,456.0476190476191,560C452.30952380952385,560,452.30952380952385,560,448.57142857142856,560C444.8333333333333,560,444.8333333333333,560,441.0952380952381,560C437.3571428571429,560,437.3571428571429,560,433.61904761904765,560C429.8809523809524,560,429.8809523809524,560,426.1428571428571,560C422.4047619047619,560,422.4047619047619,560,418.6666666666667,560C414.92857142857144,560,414.92857142857144,560,411.1904761904762,560C407.45238095238096,560,407.45238095238096,560,403.71428571428567,560C399.9761904761905,560,399.9761904761905,560,396.23809523809524,560C392.5,560,392.5,560,388.76190476190476,560C385.0238095238095,560,385.0238095238095,560,381.2857142857143,560C377.54761904761904,560,377.54761904761904,560,373.8095238095238,560C370.07142857142856,560,370.07142857142856,560,366.3333333333333,560C362.5952380952381,560,362.5952380952381,560,358.85714285714283,560C355.1190476190476,560,355.1190476190476,560,351.3809523809524,560C347.64285714285717,560,347.64285714285717,560,343.9047619047619,560C340.16666666666663,560,340.16666666666663,560,336.4285714285714,560C332.69047619047615,560,332.69047619047615,560,328.95238095238096,560C325.2142857142857,560,325.2142857142857,560,321.4761904761905,560C317.73809523809524,560,317.73809523809524,560,314,560C310.26190476190476,560,310.26190476190476,560,306.5238095238095,560C302.7857142857143,560,302.7857142857143,560,299.04761904761904,560C295.3095238095238,560,295.3095238095238,560,291.57142857142856,560C287.8333333333333,560,287.8333333333333,560,284.0952380952381,560C280.3571428571429,560,280.3571428571429,560,276.61904761904765,560C272.8809523809524,560,272.8809523809524,560,269.14285714285717,560C265.4047619047619,560,265.4047619047619,560,261.66666666666663,560C257.92857142857144,560,257.92857142857144,560,254.1904761904762,560C250.45238095238096,560,250.45238095238096,560,246.71428571428572,560C242.97619047619048,560,242.97619047619048,560,239.23809523809527,560C235.5,560,235.5,560,231.76190476190476,560C228.02380952380952,560,228.02380952380952,560,224.28571428571428,560C220.54761904761904,560,220.54761904761904,560,216.80952380952382,560C213.07142857142858,560,213.07142857142858,560,209.33333333333334,560C205.59523809523807,560,205.59523809523807,560,201.85714285714283,560C198.1190476190476,560,198.1190476190476,560,194.38095238095238,560C190.64285714285714,560,190.64285714285714,560,186.9047619047619,560C183.16666666666666,560,183.16666666666666,560,179.42857142857142,560C175.6904761904762,560,175.6904761904762,560,171.95238095238096,560C168.21428571428572,560,168.21428571428572,560,164.47619047619048,560C160.73809523809524,560,160.73809523809524,560,157,560C153.26190476190476,560,153.26190476190476,560,149.52380952380952,560C145.78571428571428,560,145.78571428571428,560,142.04761904761904,560C138.3095238095238,560,138.3095238095238,560,134.57142857142858,560C130.83333333333334,560,130.83333333333334,560,127.0952380952381,560C123.35714285714286,560,123.35714285714286,560,119.61904761904763,560C115.88095238095238,560,115.88095238095238,560,112.14285714285714,560C108.4047619047619,560,108.4047619047619,560,104.66666666666667,560C100.92857142857143,560,100.92857142857143,560,97.19047619047619,560C93.45238095238095,560,93.45238095238095,560,89.71428571428571,560C85.97619047619048,560,85.97619047619048,560,82.23809523809524,560C78.5,560,78.5,560,74.76190476190476,560C71.02380952380952,560,71.02380952380952,560,67.28571428571429,560C63.54761904761905,560,63.54761904761905,560,59.80952380952382,560C56.07142857142858,560,56.07142857142858,560,52.333333333333336,560C48.595238095238095,560,48.595238095238095,560,44.857142857142854,560C41.11904761904762,560,41.11904761904762,560,37.38095238095238,560C33.642857142857146,560,33.642857142857146,560,29.90476190476191,560C26.166666666666668,560,26.166666666666668,560,22.428571428571427,560C18.69047619047619,560,18.69047619047619,560,14.952380952380954,560C11.214285714285715,560,11.214285714285715,560,7.476190476190477,560C3.7380952380952386,560,3.7380952380952386,560,0,560Z"><title>manga</title></path><path fill="#9852d9" d="M0,387.20000000000005C3.7380952380952386,387.20000000000005,3.7380952380952386,560,7.476190476190477,560C11.214285714285715,560,11.214285714285715,560,14.952380952380954,560C18.69047619047619,560,18.69047619047619,560,22.428571428571427,560C26.166666666666668,560,26.166666666666668,560,29.90476190476191,560C33.642857142857146,560,33.642857142857146,560,37.38095238095238,560C41.11904761904762,560,41.11904761904762,560,44.857142857142854,560C48.595238095238095,560,48.595238095238095,560,52.333333333333336,560C56.07142857142858,560,56.07142857142858,560,59.80952380952382,560C63.54761904761905,560,63.54761904761905,472,67.28571428571429,472C71.02380952380952,472,71.02380952380952,334.40000000000003,74.76190476190476,334.40000000000003C78.5,334.40000000000003,78.5,560,82.23809523809524,560C85.97619047619048,560,85.97619047619048,560,89.71428571428571,560C93.45238095238095,560,93.45238095238095,478.40000000000003,97.19047619047619,478.40000000000003C100.92857142857143,478.40000000000003,100.92857142857143,499.20000000000005,104.66666666666667,499.20000000000005C108.4047619047619,499.20000000000005,108.4047619047619,560,112.14285714285714,560C115.88095238095238,560,115.88095238095238,507.2,119.61904761904763,507.2C123.35714285714286,507.2,123.35714285714286,379.2,127.0952380952381,379.2C130.83333333333334,379.2,130.83333333333334,560,134.57142857142858,560C138.3095238095238,560,138.3095238095238,433.59999999999997,142.04761904761904,433.59999999999997C145.78571428571428,433.59999999999997,145.78571428571428,560,149.52380952380952,560C153.26190476190476,560,153.26190476190476,560,157,560C160.73809523809524,560,160.73809523809524,456,164.47619047619048,456C168.21428571428572,456,168.21428571428572,472,171.95238095238096,472C175.6904761904762,472,175.6904761904762,364.8,179.42857142857142,364.8C183.16666666666666,364.8,183.16666666666666,198.4,186.9047619047619,198.4C190.64285714285714,198.4,190.64285714285714,560,194.38095238095238,560C198.1190476190476,560,198.1190476190476,560,201.85714285714283,560C205.59523809523807,560,205.59523809523807,371.2,209.33333333333334,371.2C213.07142857142858,371.2,213.07142857142858,483.2,216.80952380952382,483.2C220.54761904761904,483.2,220.54761904761904,284.8,224.28571428571428,284.8C228.02380952380952,284.8,228.02380952380952,560,231.76190476190476,560C235.5,560,235.5,560,239.23809523809527,560C242.97619047619048,560,242.97619047619048,560,246.71428571428572,560C250.45238095238096,560,250.45238095238096,560,254.1904761904762,560C257.92857142857144,560,257.92857142857144,400,261.66666666666663,400C265.4047619047619,400,265.4047619047619,352,269.14285714285717,352C272.8809523809524,352,272.8809523809524,444.8,276.61904761904765,444.8C280.3571428571429,444.8,280.3571428571429,70.39999999999998,284.0952380952381,70.39999999999998C287.8333333333333,70.39999999999998,287.8333333333333,444.8,291.57142857142856,444.8C295.3095238095238,444.8,295.3095238095238,433.59999999999997,299.04761904761904,433.59999999999997C302.7857142857143,433.59999999999997,302.7857142857143,560,306.5238095238095,560C310.26190476190476,560,310.26190476190476,560,314,560C317.73809523809524,560,317.73809523809524,560,321.4761904761905,560C325.2142857142857,560,325.2142857142857,560,328.95238095238096,560C332.69047619047615,560,332.69047619047615,560,336.4285714285714,560C340.16666666666663,560,340.16666666666663,560,343.9047619047619,560C347.64285714285717,560,347.64285714285717,560,351.3809523809524,560C355.1190476190476,560,355.1190476190476,560,358.85714285714283,560C362.5952380952381,560,362.5952380952381,560,366.3333333333333,560C370.07142857142856,560,370.07142857142856,507.2,373.8095238095238,507.2C377.54761904761904,507.2,377.54761904761904,560,381.2857142857143,560C385.0238095238095,560,385.0238095238095,560,388.76190476190476,560C392.5,560,392.5,556.8000000000001,396.23809523809524,556.8000000000001C399.9761904761905,556.8000000000001,399.9761904761905,465.59999999999997,403.71428571428567,465.59999999999997C407.45238095238096,465.59999999999997,407.45238095238096,560,411.1904761904762,560C414.92857142857144,560,414.92857142857144,560,418.6666666666667,560C422.4047619047619,560,422.4047619047619,560,426.1428571428571,560C429.8809523809524,560,429.8809523809524,560,433.61904761904765,560C437.3571428571429,560,437.3571428571429,560,441.0952380952381,560C444.8333333333333,560,444.8333333333333,560,448.57142857142856,560C452.30952380952385,560,452.30952380952385,409.6,456.0476190476191,409.6C459.78571428571433,409.6,459.78571428571433,560,463.5238095238095,560C467.26190476190476,560,467.26190476190476,212.8,471,212.8C474.7380952380953,212.8,474.7380952380953,316.8,478.47619047619054,316.8C482.2142857142858,316.8,482.2142857142858,361.59999999999997,485.95238095238096,361.59999999999997C489.6904761904762,361.59999999999997,489.6904761904762,560,493.42857142857144,560C497.16666666666663,560,497.16666666666663,324.80000000000007,500.90476190476187,324.80000000000007C504.6428571428571,324.80000000000007,504.6428571428571,560,508.3809523809524,560C512.1190476190477,560,512.1190476190477,560,515.8571428571429,560C519.5952380952381,560,519.5952380952381,524.8000000000001,523.3333333333333,524.8000000000001C527.0714285714286,524.8000000000001,527.0714285714286,496,530.8095238095239,496C534.547619047619,496,534.547619047619,502.4,538.2857142857143,502.4C542.0238095238095,502.4,542.0238095238095,560,545.7619047619047,560C549.5,560,549.5,499.20000000000005,553.2380952380953,499.20000000000005C556.9761904761906,499.20000000000005,556.9761904761906,539.2,560.7142857142858,539.2C564.452380952381,539.2,564.452380952381,540.8000000000001,568.1904761904761,540.8000000000001C571.9285714285713,540.8000000000001,571.9285714285713,560,575.6666666666666,560C579.4047619047619,560,579.4047619047619,560,583.1428571428571,560C586.8809523809523,560,586.8809523809523,547.1999999999999,590.6190476190476,547.1999999999999C594.3571428571429,547.1999999999999,594.3571428571429,539.2,598.0952380952381,539.2C601.8333333333333,539.2,601.8333333333333,505.59999999999997,605.5714285714286,505.59999999999997C609.3095238095239,505.59999999999997,609.3095238095239,560,613.047619047619,560C616.7857142857142,560,616.7857142857142,499.20000000000005,620.5238095238095,499.20000000000005C624.2619047619048,499.20000000000005,624.2619047619048,560,628,560C631.7380952380952,560,631.7380952380952,560,635.4761904761905,560C639.2142857142858,560,639.2142857142858,345.6,642.952380952381,345.6C646.6904761904761,345.6,646.6904761904761,560,650.4285714285714,560C654.1666666666667,560,654.1666666666667,560,657.9047619047619,560C661.6428571428571,560,661.6428571428571,463.99999999999994,665.3809523809524,463.99999999999994C669.1190476190476,463.99999999999994,669.1190476190476,486.4,672.8571428571428,486.4C676.5952380952381,486.4,676.5952380952381,560,680.3333333333334,560C684.0714285714287,560,684.0714285714287,560,687.8095238095239,560C691.547619047619,560,691.547619047619,560,695.2857142857142,560C699.0238095238095,560,699.0238095238095,560,702.7619047619048,560C706.5,560,706.5,560,710.2380952380953,560C713.9761904761905,560,713.9761904761905,560,717.7142857142857,560C721.452380952381,560,721.452380952381,526.4,725.1904761904763,526.4C728.9285714285714,526.4,728.9285714285714,560,732.6666666666666,560C736.4047619047619,560,736.4047619047619,560,740.1428571428571,560C743.8809523809523,560,743.8809523809523,524.8000000000001,747.6190476190476,524.8000000000001C751.3571428571429,524.8000000000001,751.3571428571429,523.2,755.0952380952381,523.2C758.8333333333333,523.2,758.8333333333333,560,762.5714285714286,560C766.3095238095239,560,766.3095238095239,560,770.047619047619,560C773.7857142857142,560,773.7857142857142,507.2,777.5238095238095,507.2C781.2619047619048,507.2,781.2619047619048,531.2,785,531.2L785,531.2C781.2619047619048,531.2,781.2619047619048,507.2,777.5238095238095,507.2C773.7857142857142,507.2,773.7857142857142,560,770.047619047619,560C766.3095238095239,560,766.3095238095239,560,762.5714285714286,560C758.8333333333333,560,758.8333333333333,523.2,755.0952380952381,523.2C751.3571428571429,523.2,751.3571428571429,524.8000000000001,747.6190476190476,524.8000000000001C743.8809523809523,524.8000000000001,743.8809523809523,560,740.1428571428571,560C736.4047619047619,560,736.4047619047619,560,732.6666666666666,560C728.9285714285714,560,728.9285714285714,526.4,725.1904761904763,526.4C721.452380952381,526.4,721.452380952381,560,717.7142857142857,560C713.9761904761905,560,713.9761904761905,560,710.2380952380953,560C706.5,560,706.5,560,702.7619047619048,560C699.0238095238095,560,699.0238095238095,560,695.2857142857142,560C691.547619047619,560,691.547619047619,560,687.8095238095239,560C684.0714285714287,560,684.0714285714287,560,680.3333333333334,560C676.5952380952381,560,676.5952380952381,486.4,672.8571428571428,486.4C669.1190476190476,486.4,669.1190476190476,497.6,665.3809523809524,497.6C661.6428571428571,497.6,661.6428571428571,560,657.9047619047619,560C654.1666666666667,560,654.1666666666667,560,650.4285714285714,560C646.6904761904761,560,646.6904761904761,497.6,642.952380952381,497.6C639.2142857142858,497.6,639.2142857142858,560,635.4761904761905,560C631.7380952380952,560,631.7380952380952,560,628,560C624.2619047619048,560,624.2619047619048,499.20000000000005,620.5238095238095,499.20000000000005C616.7857142857142,499.20000000000005,616.7857142857142,560,613.047619047619,560C609.3095238095239,560,609.3095238095239,505.59999999999997,605.5714285714286,505.59999999999997C601.8333333333333,505.59999999999997,601.8333333333333,539.2,598.0952380952381,539.2C594.3571428571429,539.2,594.3571428571429,547.1999999999999,590.6190476190476,547.1999999999999C586.8809523809523,547.1999999999999,586.8809523809523,560,583.1428571428571,560C579.4047619047619,560,579.4047619047619,560,575.6666666666666,560C571.9285714285713,560,571.9285714285713,540.8000000000001,568.1904761904761,540.8000000000001C564.452380952381,540.8000000000001,564.452380952381,539.2,560.7142857142858,539.2C556.9761904761906,539.2,556.9761904761906,499.20000000000005,553.2380952380953,499.20000000000005C549.5,499.20000000000005,549.5,560,545.7619047619047,560C542.0238095238095,560,542.0238095238095,502.4,538.2857142857143,502.4C534.547619047619,502.4,534.547619047619,496,530.8095238095239,496C527.0714285714286,496,527.0714285714286,524.8000000000001,523.3333333333333,524.8000000000001C519.5952380952381,524.8000000000001,519.5952380952381,560,515.8571428571429,560C512.1190476190477,560,512.1190476190477,560,508.3809523809524,560C504.6428571428571,560,504.6428571428571,536,500.90476190476187,536C497.16666666666663,536,497.16666666666663,560,493.42857142857144,560C489.6904761904762,560,489.6904761904762,520,485.95238095238096,520C482.2142857142858,520,482.2142857142858,560,478.47619047619054,560C474.7380952380953,560,474.7380952380953,560,471,560C467.26190476190476,560,467.26190476190476,560,463.5238095238095,560C459.78571428571433,560,459.78571428571433,560,456.0476190476191,560C452.30952380952385,560,452.30952380952385,560,448.57142857142856,560C444.8333333333333,560,444.8333333333333,560,441.0952380952381,560C437.3571428571429,560,437.3571428571429,560,433.61904761904765,560C429.8809523809524,560,429.8809523809524,560,426.1428571428571,560C422.4047619047619,560,422.4047619047619,560,418.6666666666667,560C414.92857142857144,560,414.92857142857144,560,411.1904761904762,560C407.45238095238096,560,407.45238095238096,465.59999999999997,403.71428571428567,465.59999999999997C399.9761904761905,465.59999999999997,399.9761904761905,560,396.23809523809524,560C392.5,560,392.5,560,388.76190476190476,560C385.0238095238095,560,385.0238095238095,560,381.2857142857143,560C377.54761904761904,560,377.54761904761904,507.2,373.8095238095238,507.2C370.07142857142856,507.2,370.07142857142856,560,366.3333333333333,560C362.5952380952381,560,362.5952380952381,560,358.85714285714283,560C355.1190476190476,560,355.1190476190476,560,351.3809523809524,560C347.64285714285717,560,347.64285714285717,560,343.9047619047619,560C340.16666666666663,560,340.16666666666663,560,336.4285714285714,560C332.69047619047615,560,332.69047619047615,560,328.95238095238096,560C325.2142857142857,560,325.2142857142857,560,321.4761904761905,560C317.73809523809524,560,317.73809523809524,560,314,560C310.26190476190476,560,310.26190476190476,560,306.5238095238095,560C302.7857142857143,560,302.7857142857143,560,299.04761904761904,560C295.3095238095238,560,295.3095238095238,560,291.57142857142856,560C287.8333333333333,560,287.8333333333333,560,284.0952380952381,560C280.3571428571429,560,280.3571428571429,560,276.61904761904765,560C272.8809523809524,560,272.8809523809524,560,269.14285714285717,560C265.4047619047619,560,265.4047619047619,560,261.66666666666663,560C257.92857142857144,560,257.92857142857144,560,254.1904761904762,560C250.45238095238096,560,250.45238095238096,560,246.71428571428572,560C242.97619047619048,560,242.97619047619048,560,239.23809523809527,560C235.5,560,235.5,560,231.76190476190476,560C228.02380952380952,560,228.02380952380952,560,224.28571428571428,560C220.54761904761904,560,220.54761904761904,560,216.80952380952382,560C213.07142857142858,560,213.07142857142858,560,209.33333333333334,560C205.59523809523807,560,205.59523809523807,560,201.85714285714283,560C198.1190476190476,560,198.1190476190476,560,194.38095238095238,560C190.64285714285714,560,190.64285714285714,560,186.9047619047619,560C183.16666666666666,560,183.16666666666666,560,179.42857142857142,560C175.6904761904762,560,175.6904761904762,560,171.95238095238096,560C168.21428571428572,560,168.21428571428572,560,164.47619047619048,560C160.73809523809524,560,160.73809523809524,560,157,560C153.26190476190476,560,153.26190476190476,560,149.52380952380952,560C145.78571428571428,560,145.78571428571428,560,142.04761904761904,560C138.3095238095238,560,138.3095238095238,560,134.57142857142858,560C130.83333333333334,560,130.83333333333334,560,127.0952380952381,560C123.35714285714286,560,123.35714285714286,560,119.61904761904763,560C115.88095238095238,560,115.88095238095238,560,112.14285714285714,560C108.4047619047619,560,108.4047619047619,560,104.66666666666667,560C100.92857142857143,560,100.92857142857143,560,97.19047619047619,560C93.45238095238095,560,93.45238095238095,560,89.71428571428571,560C85.97619047619048,560,85.97619047619048,560,82.23809523809524,560C78.5,560,78.5,560,74.76190476190476,560C71.02380952380952,560,71.02380952380952,560,67.28571428571429,560C63.54761904761905,560,63.54761904761905,560,59.80952380952382,560C56.07142857142858,560,56.07142857142858,560,52.333333333333336,560C48.595238095238095,560,48.595238095238095,560,44.857142857142854,560C41.11904761904762,560,41.11904761904762,560,37.38095238095238,560C33.642857142857146,560,33.642857142857146,560,29.90476190476191,560C26.166666666666668,560,26.166666666666668,560,22.428571428571427,560C18.69047619047619,560,18.69047619047619,560,14.952380952380954,560C11.214285714285715,560,11.214285714285715,560,7.476190476190477,560C3.7380952380952386,560,3.7380952380952386,560,0,560Z"><title>novela</title></path></g><g id="xAxis" transform="translate(0,560)" fill="none" font-size="10" font-family="sans-serif" text-anchor="middle"><path class="domain" stroke="currentColor" d="M0.5,0.5H785.5"/><g class="tick" opacity="1" transform="translate(67.78571428571429,0)"><line stroke="currentColor" y2="6"/><text fill="currentColor" y="9" dy="0.71em">2024</text></g><g class="tick" opacity="1" transform="translate(164.97619047619048,0)"><line stroke="currentColor" y2="6"/><text fill="currentColor" y="9" dy="0.71em">April</text></g><g class="tick" opacity="1" transform="translate(262.16666666666663,0)"><line stroke="currentColor" y2="6"/><text fill="currentColor" y="9" dy="0.71em">July</text></g><g class="tick" opacity="1" transform="translate(360.4251700680272,0)"><line stroke="currentColor" y2="6"/><text fill="currentColor" y="9" dy="0.71em">October</text></g><g class="tick" opacity="1" transform="translate(458.68367346938777,0)"><line stroke="currentColor" y2="6"/><text fill="currentColor" y="9" dy="0.71em">2025</text></g><g class="tick" opacity="1" transform="translate(554.8061224489796,0)"><line stroke="currentColor" y2="6"/><text fill="currentColor" y="9" dy="0.71em">April</text></g><g class="tick" opacity="1" transform="translate(651.9965986394558,0)"><line stroke="currentColor" y2="6"/><text fill="currentColor" y="9" dy="0.71em">July</text></g><g class="tick" opacity="1" transform="translate(750.2551020408164,0)"><line stroke="currentColor" y2="6"/><text fill="currentColor" y="9" dy="0.71em">October</text></g></g><text y="556" x="785" text-anchor="end" style="font-family: Arial, sans-serif; font-size: 12px; fill: rgb(123, 123, 123); font-weight: bold;">semana</text><text x="4" text-anchor="start" dominant-baseline="hanging" style="font-family: Arial, sans-serif; font-size: 12px; fill: rgb(123, 123, 123); font-weight: bold;">paginas_leidas</text></g><text x="4" y="4" style="font-family: Arial, sans-serif; font-size: 12px; fill: black; font-weight: bold; dominant-baseline: hanging;"/></g></g><g id="legend" transform="translate(805,20)"><g transform="translate(5,0)"><g class="legendColor" transform="translate(0,0)"><g class="legendCells" transform="translate(0,16)"><g class="cell" transform="translate(0, 0)"><rect class="swatch" height="15" width="15" style="fill: rgb(245, 78, 139);"/><text class="label" transform="translate( 20, 12.5)" font-family="&quot;Arial&quot;, sans-serif" font-size="10px"><tspan x="0" dy="0em">comic</tspan></text></g><g class="cell" transform="translate(0, 21)"><rect class="swatch" height="15" width="15" style="fill: rgb(19, 90, 225);"/><text class="label" transform="translate( 20, 12.5)" font-family="&quot;Arial&quot;, sans-serif" font-size="10px"><tspan x="0" dy="0em">cuentos</tspan></text></g><g class="cell" transform="translate(0, 42)"><rect class="swatch" height="15" width="15" style="fill: rgb(33, 151, 255);"/><text class="label" transform="translate( 20, 12.5)" font-family="&quot;Arial&quot;, sans-serif" font-size="10px"><tspan x="0" dy="0em">manga</tspan></text></g><g class="cell" transform="translate(0, 63)"><rect class="swatch" height="15" width="15" style="fill: rgb(152, 82, 217);"/><text class="label" transform="translate( 20, 12.5)" font-family="&quot;Arial&quot;, sans-serif" font-size="10px"><tspan x="0" dy="0em">novela</tspan></text></g></g><text class="legendTitle" font-family="&quot;Arial&quot;, sans-serif" font-size="12px" font-weight="bold"><tspan x="0" dy="0em">Colors</tspan></text></g></g></g></svg>